# xmcd
#
# Track frame offsets: 
#        150
#        15273
#        34529
#
# Disc length: 650 seconds
#
# Revision: 2
# Processed by: cddbd v1.5.1PL2 Copyright (c) Steve Scherf et al.
# Submitted via: ExactAudioCopy v0.90b4
#
DISCID=11028803
DTITLE=Dashboard Confessional - Vindicated (Single)
DYEAR=2004
DGENRE=Rock
TTITLE0=Vindicated
TTITLE1=The Warmth of the Sand
TTITLE2=Hands Down
EXTD=
EXTT0=
EXTT1=
EXTT2=
PLAYORDER=
